inDegrees=no
num_controls=7
num_derivatives=13
num_iterations=53
num_multipliers=7
num_parameters=0
num_slacks=7
num_states=26
objective=0.471587
objective_accelerations=0.058020
objective_balance=0.000894
objective_effort=0.016314
objective_height=0.387131
objective_ligament=0.009227
solver_duration=728.123432
status=Solve_Succeeded
success=true
DataType=double
version=3
OpenSimVersion=4.5
endheader
time	/jointset/ground_pelvis/pelvis_tilt/value	/jointset/ground_pelvis/pelvis_tx/value	/jointset/ground_pelvis/pelvis_ty/value	/jointset/hip_l/hip_flexion_l/value	/jointset/hip_l/hip_adduction_l/value	/jointset/hip_l/hip_rotation_l/value	/jointset/back/lumbar_extension/value	/jointset/patellofemoral_l/patellar_flexion_l/value	/jointset/knee_l/knee_flexion_l/value	/jointset/knee_l/knee_adduction_l/value	/jointset/knee_l/knee_rotation_l/value	/jointset/ankle_l/ankle_angle_l/value	/jointset/subtalar_l/subtalar_angle_l/value	/jointset/ground_pelvis/pelvis_tilt/speed	/jointset/ground_pelvis/pelvis_tx/speed	/jointset/ground_pelvis/pelvis_ty/speed	/jointset/hip_l/hip_flexion_l/speed	/jointset/hip_l/hip_adduction_l/speed	/jointset/hip_l/hip_rotation_l/speed	/jointset/back/lumbar_extension/speed	/jointset/patellofemoral_l/patellar_flexion_l/speed	/jointset/knee_l/knee_flexion_l/speed	/jointset/knee_l/knee_adduction_l/speed	/jointset/knee_l/knee_rotation_l/speed	/jointset/ankle_l/ankle_angle_l/speed	/jointset/subtalar_l/subtalar_angle_l/speed	/forceset/tau_hip_flexion_l	/forceset/tau_hip_adduction_l	/forceset/tau_hip_rotation_l	/forceset/tau_knee_flexion_l	/forceset/tau_ankle_angle_l	/forceset/tau_subtalar_angle_l	/forceset/tau_lumbar_extension	lambda_cid13_p0	lambda_cid13_p1	lambda_cid13_p2	lambda_cid13_p3	lambda_cid13_p4	lambda_cid13_p5	lambda_cid14_p0	/jointset/ground_pelvis/pelvis_tilt/accel	/jointset/ground_pelvis/pelvis_tx/accel	/jointset/ground_pelvis/pelvis_ty/accel	/jointset/hip_l/hip_flexion_l/accel	/jointset/hip_l/hip_adduction_l/accel	/jointset/hip_l/hip_rotation_l/accel	/jointset/back/lumbar_extension/accel	/jointset/patellofemoral_l/patellar_flexion_l/accel	/jointset/knee_l/knee_flexion_l/accel	/jointset/knee_l/knee_adduction_l/accel	/jointset/knee_l/knee_rotation_l/accel	/jointset/ankle_l/ankle_angle_l/accel	/jointset/subtalar_l/subtalar_angle_l/accel	gamma_cid13_p0	gamma_cid13_p1	gamma_cid13_p2	gamma_cid13_p3	gamma_cid13_p4	gamma_cid13_p5	gamma_cid14_p0
0	0.04885093324316211	0.1075296696693685	0.9034802899878327	0.1266922784136757	-0.3649569625314192	-0.2356326714826515	-0.2144969558742783	0.2051545070141995	0.2051545070141877	-0.1635531651829688	-0.1678969045162547	0.09024313228550125	0.08466852774131288	0	0	0	0	0	0	0	0	0	0	0	0	0	0.1256265375443082	-0.03669638164726819	-0.01184351939288819	-0.2538943285075037	0.1818410991481698	-0.1016055598138816	-0.05710902506619908	25.7440262119545	40.55260943444046	-7.811809869022353	-9.616229535634607	-448.1995304716327	-35.53962732493216	-26.43289383941785	-4.893382268728268	-1.561260817933638	-0.7903745728495879	12.33623413117965	0.2147185603087655	2.642092766567183	-3.670338180319869	8.045394194403499	8.045394194402304	2.465799455745094	-0.3723963968201212	1.505350463307515	0.6594919849719688	1.292818737341818e-08	3.370367063393799e-07	-1.49525474748023e-07	6.88473316084423e-08	-1.11491754118395e-07	1.600370562675255e-07	7.395114071424209e-08
0.01	0.04861922379432163	0.1074532737543994	0.9034416841438168	0.1272910038462516	-0.3649474371504079	-0.2354938831577286	-0.21468450660247	0.2055535580319236	0.2055535580318741	-0.1634335179266725	-0.1679083238556758	0.09032060762146514	0.08470077966658282	-0.04567865198771714	-0.01514101038115185	-0.007724231627377985	0.1189964237311981	0.001682580809487411	0.02779502389047464	-0.037262457735877	0.08017325331215215	0.08017325331215029	0.02357102373169618	-0.002454390718116275	0.01587345986721314	0.006324580581932126	0.1190208719208791	-0.04461176094834789	-0.01050605621438842	-0.2455080548802701	0.1701805653310902	-0.09117216701457075	-0.05207958753844858	22.74789988524033	36.14000729785237	-6.644593099547555	-8.958361746309567	-446.7758761807897	-43.63318677946156	-26.43217795503119	-4.305609412719753	-1.469781487628431	-0.7639291796368362	11.56905604713863	0.1116226033923821	2.853843246421792	-3.717046384273791	8.057733577550128	8.057733577550811	2.24903176341907	-0.2075715238752744	1.685113848737755	0.6000351343435765	1.491020112010137e-08	5.44892035792637e-07	-1.18482503140551e-07	6.493334647162877e-08	-1.706136581790356e-07	1.892371350234564e-07	9.270888935560862e-08
0.02	0.04795062727581215	0.1072296156677345	0.9033257396391361	0.1290572354266944	-0.3649277670088313	-0.2350760173846406	-0.2152372512708428	0.2067652301181664	0.2067652301181727	-0.1630889048467113	-0.1679494093254897	0.09056817157617786	0.08479249620557809	-0.08737741393238796	-0.02945243433917465	-0.01546773213289857	0.2335012295844256	0.002028952103929635	0.05581548962630247	-0.07303878803381531	0.1625242137414633	0.1625242137414623	0.04499316472489414	-0.005933226018932141	0.03401772374679987	0.01189292274545542	0.1124152062965926	-0.05252714024948908	-0.009168593034317777	-0.2371217812538474	0.1585200315137723	-0.08073877421541767	-0.04705015001118966	19.78947970806635	31.73290264491607	-5.492075122932324	-8.290872131499095	-444.6349314969761	-51.56145405361943	-26.43030389084385	-4.097404260118749	-1.395343533308109	-0.7942283484781008	11.43791055558565	-0.05252334270025188	2.687181135637896	-3.373112692731999	8.480935617835371	8.480935617834724	2.036022908045505	-0.5772853133600834	1.959511265781939	0.5082443012901074	1.689221486678457e-08	7.527473652458941e-07	-8.743953153307909e-08	6.101936133481523e-08	-2.297355622396762e-07	2.184372137793872e-07	1.114666379969752e-07
0.03	0.04687796588676518	0.10686573293568	0.9031323827319563	0.1319497895599366	-0.3649086510132072	-0.2343798266238211	-0.2161397146930989	0.2088009681906874	0.2088009681906808	-0.1625383456017026	-0.168028379395895	0.09100150252757803	0.08493690834820179	-0.1271588484403205	-0.04331084032915645	-0.02319036882151937	0.3446002649799838	0.001844048092005871	0.0832579436848514	-0.1071758078396433	0.2439387195266644	0.2439387195266643	0.06501141133551092	-0.00972875593004419	0.05232928651243619	0.0169497048218551	0.1095953311164651	-0.04800248982822972	-0.008552723759512914	-0.2339373964192825	0.1543540503154978	-0.08254346536331347	-0.04490112218444361	18.31006745842569	32.67881131428281	-5.532191433809902	-7.076597689000318	-445.0057125821074	-49.03747098312865	-26.42753716343934	-3.919104579060103	-1.379086183140435	-0.759335442784705	10.8845022987037	0.005893914823678633	2.748105361985345	-3.392283337292194	7.868983504721958	7.868983504722619	1.968754008948368	-0.260913613209706	1.719129194177654	0.4983159367295886	1.089735611041548e-08	7.870995138056769e-07	-7.610908507034261e-08	7.877440347410413e-08	-3.609428304263843e-07	1.941858329048263e-07	1.22138797406314e-07
